# Blender 4.1.0
# www.blender.org
mtllib grassblade_lowLOD.mtl
o Grass
v 0.000000 0.233919 0.051667
v 0.000000 0.000000 0.051640
v 0.000000 0.233919 -0.051667
v 0.000000 -0.000000 -0.051640
v 0.000000 0.571505 0.044122
v 0.000000 0.571505 -0.044122
v 0.000000 0.709691 0.039284
v 0.000000 0.709691 -0.039284
v 0.000000 0.945709 0.025920
v 0.000000 0.945709 -0.025920
v 0.000000 1.062001 -0.000000
vn 1.0000 -0.0000 -0.0000
vt 0.450037 0.000000
vt 0.550516 0.220262
vt 0.450011 0.220262
vt 0.543177 0.538140
vt 0.462055 0.668258
vt 0.457350 0.538140
vt 0.525474 0.890496
vt 0.500264 1.000000
vt 0.475053 0.890496
vt 0.550490 0.000000
vt 0.538472 0.668258
s 0
f 2/1/1 3/2/1 1/3/1
f 6/4/1 7/5/1 5/6/1
f 10/7/1 11/8/1 9/9/1
f 2/1/1 4/10/1 3/2/1
f 6/4/1 8/11/1 7/5/1
f 8/11/1 10/7/1 9/9/1
f 6/4/1 5/6/1 3/2/1
f 9/9/1 7/5/1 8/11/1
f 3/2/1 5/6/1 1/3/1
