# Blender 4.0.2
# www.blender.org
mtllib grassblade.mtl
o Plane
v -0.130000 0.994568 -0.642857
v -0.180000 -0.005432 -0.642857
v -0.150000 0.494568 -0.642857
v 0.000000 1.494568 -0.642857
v 0.180000 -0.005432 -0.642857
v 0.150000 0.494568 -0.642857
v 0.130000 0.994568 -0.642857
vn -0.0000 -0.0000 1.0000
vt 0.620025 0.000049
vt 0.400047 0.333350
vt 0.380049 0.000049
vt 0.586695 0.666650
vt 0.500037 0.999951
vt 0.413379 0.666650
vt 0.600027 0.333350
s 0
f 5/1/1 3/2/1 2/3/1
f 7/4/1 4/5/1 1/6/1
f 5/1/1 6/7/1 3/2/1
f 1/6/1 3/2/1 6/7/1
f 6/7/1 7/4/1 1/6/1
